<svg version="1.1" id="Layer_1" xmlns="http://www.w3.org/2000/svg" xmlns:xlink="http://www.w3.org/1999/xlink" x="0px" y="0px"
	 width="100" height="100" viewBox="0 0 1080 1080" enable-background="new 0 0 1080 1080" xml:space="preserve">
<path fill="#FFFFFF" opacity="1.000000" stroke="none" 
	d="
M1081.000000,397.000000 
	C1081.000000,625.307007 1081.000000,853.114014 1081.000000,1080.960449 
	C721.067993,1080.960449 361.135956,1080.960449 1.101959,1080.960449 
	C1.101959,721.109619 1.101959,361.219208 1.101959,1.164401 
	C360.999939,1.164401 720.999939,1.164401 1081.000000,1.164401 
	C1081.000000,132.864166 1081.000000,264.682098 1081.000000,397.000000 
M524.275330,31.907354 
	C519.209290,30.656595 514.205383,28.982210 509.066437,28.227938 
	C486.021759,24.845512 462.845734,24.516735 439.905609,28.384857 
	C404.546631,34.347031 372.281586,48.086460 344.300171,70.706451 
	C292.100891,112.904007 264.439087,167.545853 263.106415,234.913101 
	C262.589203,261.058655 263.005463,287.222717 262.083313,313.573486 
	C244.386414,313.728668 226.689499,313.883850 208.065338,313.891388 
	C179.079514,313.880157 150.093674,313.856079 121.107887,313.879181 
	C118.451469,313.881287 115.756691,313.951447 113.144859,314.383606 
	C80.738052,319.745850 62.094860,347.171417 62.575211,374.477509 
	C63.187454,409.280945 62.505043,444.106171 62.469990,478.922119 
	C62.296734,651.007568 62.145969,823.093079 62.039017,995.178528 
	C62.036339,999.486511 62.369926,1003.833069 62.991913,1008.096680 
	C66.477959,1031.993286 89.153519,1055.049194 112.145584,1055.779175 
	C143.426025,1056.772217 174.760254,1056.070679 206.855728,1056.344238 
	C212.015366,1056.501343 217.174973,1056.795166 222.334625,1056.795776 
	C412.998077,1056.819214 603.661499,1056.853394 794.324951,1056.791626 
	C849.483521,1056.773682 904.642029,1056.485352 959.800354,1056.265137 
	C964.116333,1056.247925 968.551758,1056.348877 972.726196,1055.445557 
	C1001.467346,1049.227051 1020.372009,1025.634888 1019.981812,996.225342 
	C1019.643677,970.735352 1018.824585,945.251953 1018.245483,919.765015 
	C1017.242371,875.619812 1016.258972,831.474304 1015.270142,787.328796 
	C1014.258972,742.183716 1013.252502,697.038574 1012.241943,651.893433 
	C1011.253784,607.747986 1010.254395,563.602661 1009.275452,519.456970 
	C1008.200439,470.979187 1006.849915,422.505096 1006.175659,374.021637 
	C1005.680542,338.419800 977.748779,313.176056 945.003235,313.746460 
	C916.345764,314.245605 887.672729,313.852600 859.006531,313.848145 
	C837.513611,313.844788 816.020752,313.832672 794.399902,312.923737 
	C794.368591,288.926819 794.612305,264.925079 794.192017,240.934982 
	C793.976562,228.639420 793.478638,216.220734 791.551147,204.105423 
	C783.268127,152.039154 758.604065,108.846680 718.261841,75.103920 
	C670.028320,34.760750 614.097717,20.010361 551.996094,27.768154 
	C542.959656,28.896990 533.995972,30.607815 524.275330,31.907354 
z"/>
<path fill="#F9AF23" opacity="1.000000" stroke="none" 
	d="
M794.527832,313.824432 
	C816.020752,313.832672 837.513611,313.844788 859.006531,313.848145 
	C887.672729,313.852600 916.345764,314.245605 945.003235,313.746460 
	C977.748779,313.176056 1005.680542,338.419800 1006.175659,374.021637 
	C1006.849915,422.505096 1008.200439,470.979187 1009.275452,519.456970 
	C1010.254395,563.602661 1011.253784,607.747986 1012.241943,651.893433 
	C1013.252502,697.038574 1014.258972,742.183716 1015.270142,787.328796 
	C1016.258972,831.474304 1017.242371,875.619812 1018.245483,919.765015 
	C1018.824585,945.251953 1019.643677,970.735352 1019.981812,996.225342 
	C1020.372009,1025.634888 1001.467346,1049.227051 972.726196,1055.445557 
	C968.551758,1056.348877 964.116333,1056.247925 959.800354,1056.265137 
	C904.642029,1056.485352 849.483521,1056.773682 794.324951,1056.791626 
	C603.661499,1056.853394 412.998077,1056.819214 222.334625,1056.795776 
	C217.174973,1056.795166 212.015366,1056.501343 206.214996,1055.931152 
	C196.371567,1053.586670 187.941910,1049.938965 180.731461,1043.842285 
	C171.885956,1036.362915 164.455551,1027.860962 162.107590,1015.754883 
	C167.290039,1009.093201 172.220703,1002.652893 177.429001,996.445496 
	C178.646683,994.994263 181.042648,993.262390 182.470734,993.579224 
	C184.244339,993.972534 185.675232,996.277527 187.051132,997.926331 
	C187.646713,998.639954 187.718597,999.782959 188.055511,1000.721252 
	C193.144012,1014.892517 208.741409,1022.788208 222.767349,1017.363525 
	C228.779984,1015.038147 234.249466,1010.914246 239.414139,1006.898132 
	C244.911057,1002.623718 248.225418,1002.226562 253.310471,1006.795166 
	C255.529266,1008.788574 257.748444,1010.803711 260.134705,1012.584900 
	C274.073730,1022.989380 292.993988,1020.493469 301.848175,1006.804504 
	C307.642212,997.846680 308.507568,987.905518 309.019958,977.754700 
	C309.162323,974.934082 309.546783,972.125793 309.841522,969.091919 
	C314.683868,970.131958 316.034607,972.772217 317.104126,976.224121 
	C321.927094,991.790527 328.136108,1006.584290 342.056641,1016.549561 
	C360.218384,1029.551025 384.019287,1028.077759 400.191406,1013.337646 
	C411.979523,1002.593323 417.810089,988.650818 422.122589,973.773254 
	C422.627808,972.030151 424.517822,970.688477 425.765869,969.160767 
	C426.838898,970.870422 428.536774,972.470764 428.858551,974.311768 
	C429.596069,978.531006 429.565643,982.877991 430.020294,987.154663 
	C431.027313,996.627075 433.566162,1005.892822 440.958313,1012.120422 
	C456.725311,1025.403320 480.299683,1019.248840 485.879486,999.203979 
	C488.292267,990.536255 489.703918,981.320190 489.819855,972.330566 
	C490.264740,937.837830 489.991058,903.335876 490.023224,868.837402 
	C490.025055,866.862671 490.286469,864.877625 490.556702,862.915283 
	C491.850861,853.517761 498.124176,847.632812 505.450714,842.842773 
	C519.030212,833.964417 529.370422,822.410583 535.726196,807.468933 
	C538.778076,800.294250 541.386658,792.930969 544.470825,785.870178 
	C551.529297,798.117004 558.205017,810.209229 565.116150,822.165344 
	C589.097595,863.652588 613.046082,905.159607 637.259827,946.511230 
	C644.937866,959.623474 653.518005,972.664490 665.731140,981.630737 
	C678.967529,991.348083 692.092651,1001.162415 705.053589,1011.245789 
	C711.507385,1016.266663 718.838013,1016.588440 726.520630,1012.197083 
	C761.194885,992.377502 796.018372,972.818298 830.847412,953.270874 
	C838.445740,949.006409 842.640564,942.632324 841.890015,934.135193 
	C841.210449,926.442566 839.579529,918.726990 837.421936,911.296265 
	C833.947754,899.331543 830.846130,887.544678 835.402710,875.179077 
	C836.019043,873.506409 836.079834,871.585876 836.169067,869.768799 
	C837.182434,849.145020 838.152649,828.519104 839.131409,807.893616 
	C839.873413,792.257324 840.608459,776.620728 841.351074,760.984436 
	C842.575623,735.203125 843.971375,709.428406 844.955017,683.637878 
	C845.402771,671.899109 837.989990,661.393372 826.469604,658.850098 
	C818.348328,657.057129 809.596313,656.520691 801.328247,657.377014 
	C789.566284,658.595215 780.491760,669.033752 779.972229,679.771179 
	C779.223694,695.240356 778.574707,710.714355 777.820740,726.183289 
	C777.316589,736.525940 776.703613,746.863342 776.061523,758.629272 
	C774.210754,755.475098 773.112244,753.664124 772.071594,751.820618 
	C739.762207,694.579895 707.265625,637.443420 675.300659,580.010925 
	C668.054871,566.992249 654.524231,559.403625 637.151428,569.011414 
	C622.810059,576.942749 617.488586,592.077515 626.201782,606.808533 
	C639.753357,629.719604 652.487732,653.114014 665.557312,676.309814 
	C666.504456,677.990662 667.361389,679.722290 668.377686,681.653564 
	C644.356812,682.778870 628.814148,699.148743 633.988098,717.732117 
	C632.552551,716.534912 631.475647,715.593323 630.353821,714.708618 
	C625.014832,710.498413 618.917053,707.908875 612.239136,709.727356 
	C592.259644,715.167786 582.318848,724.910645 585.046631,743.957703 
	C584.906616,744.077637 584.621887,744.312012 584.316589,744.174805 
	C578.068237,738.265015 570.927490,735.546143 562.824890,737.277283 
	C558.426880,738.216980 554.357605,740.695251 550.100891,741.986877 
	C550.374146,737.377991 551.046326,733.252319 550.937927,729.147217 
	C550.412842,709.263611 549.929993,689.373047 548.948792,669.508850 
	C547.919556,648.673523 543.182007,628.557922 534.501038,609.594849 
	C532.388550,604.980225 531.214233,598.828186 524.704407,596.771851 
	C523.969543,595.294128 523.519226,594.045776 522.994263,592.829651 
	C515.811218,576.191040 505.302704,562.501160 486.329895,559.716370 
	C472.513184,557.688293 458.323029,558.204224 443.360779,557.544556 
	C443.360779,564.786011 443.360779,570.875854 443.038452,576.987183 
	C436.084106,580.563782 433.717133,587.123779 432.222839,593.646118 
	C430.723297,600.191284 430.991577,607.123474 429.833771,613.772705 
	C429.285034,616.924255 427.219086,619.811646 425.840515,622.818726 
	C424.260223,620.118408 422.338684,617.557739 421.165894,614.690735 
	C418.097870,607.190491 415.647980,599.425964 412.334900,592.043579 
	C411.103363,589.299377 408.155792,587.325317 405.767578,584.717102 
	C403.010468,578.857239 401.016296,572.950867 397.848083,567.761169 
	C384.948059,546.630249 353.139862,546.775330 340.377075,568.038513 
	C336.998535,573.667297 334.814178,580.012817 331.726532,586.052734 
	C329.622559,587.956665 327.217987,589.548889 326.241852,591.769104 
	C322.648682,599.941833 319.704773,608.400085 316.110840,616.572510 
	C315.180237,618.688660 312.771118,620.154663 311.041138,621.919312 
	C310.035645,619.883362 308.380768,617.918884 308.147156,615.797913 
	C307.460999,609.567932 307.846954,603.195496 306.870605,597.027954 
	C305.595764,588.974487 303.194946,581.196655 294.992706,576.535767 
	C294.912415,570.186218 294.912415,564.299072 294.912415,558.440674 
	C283.860779,558.440674 273.659912,558.440674 262.847260,558.440674 
	C262.847260,565.150269 262.847260,571.572693 262.505585,578.038086 
	C258.833282,580.941589 255.061676,583.431274 252.272400,586.747192 
	C247.755280,592.117126 247.133057,592.227661 241.900940,587.534851 
	C238.339294,584.340393 234.179169,581.813171 230.208893,578.525940 
	C230.131119,571.490540 230.131119,564.916870 230.131119,558.410461 
	C219.108353,558.410461 209.004181,558.410461 198.082916,558.410461 
	C198.082916,566.110596 198.082916,573.557312 197.726501,581.035400 
	C195.042282,584.469238 191.975067,587.586243 190.530029,591.329590 
	C186.715118,601.211914 184.377701,602.215149 176.069443,596.193054 
	C175.829102,596.018860 175.435486,596.056091 174.965057,595.646118 
	C171.587219,583.854004 166.872894,573.167725 158.946503,563.655762 
	C158.981720,501.854248 158.968414,440.529022 159.045502,379.203918 
	C159.052155,373.912109 159.297302,368.569122 160.051407,363.339294 
	C162.320709,347.601196 170.284698,335.182373 182.800629,325.518402 
	C190.593567,319.501251 199.782501,316.769806 208.992599,314.039062 
	C226.689499,313.883850 244.386414,313.728668 262.999878,313.590210 
	C279.805481,313.525391 295.694489,313.443848 312.069366,313.477203 
	C331.577911,313.690063 350.600616,313.787994 369.888733,313.916138 
	C370.331726,313.958801 370.509338,313.971313 370.758545,314.448181 
	C370.840576,323.048584 370.876068,331.184723 370.856964,339.320709 
	C370.798523,364.221771 370.719055,389.122742 370.356628,414.186890 
	C367.803101,415.379333 365.354156,416.126770 363.307251,417.481598 
	C343.385925,430.667419 333.569824,448.686005 335.862122,473.082855 
	C338.670227,502.969391 368.823181,527.050842 398.899323,522.114990 
	C422.735626,518.203308 437.913422,504.610504 445.738647,482.557739 
	C445.828705,506.935303 445.828705,530.859558 445.828705,554.772095 
	C534.481628,554.772095 622.369629,554.772095 710.322388,554.772095 
	C710.322388,497.338013 710.322388,440.276733 710.322388,383.217041 
	C622.043945,383.217041 534.140991,383.217041 445.864899,383.217041 
	C445.864899,385.543976 445.872284,387.519226 445.863739,389.494415 
	C445.778107,409.318909 445.689880,429.143433 445.390015,448.710754 
	C440.254547,435.213135 432.146271,424.649170 419.396271,417.446991 
	C419.266052,398.247955 419.201599,379.498932 419.228424,360.750061 
	C419.250732,345.160187 419.380432,329.570465 419.884644,313.850891 
	C490.717926,313.699768 561.129089,313.680847 631.540283,313.645691 
	C633.696838,313.644592 635.853210,313.474396 638.469238,313.491394 
	C654.849609,313.519745 670.770508,313.439728 687.168823,313.475464 
	C706.642944,313.689301 725.639465,313.787445 744.915283,313.912720 
	C745.381042,313.952240 745.567688,313.964630 745.819824,314.442780 
	C745.894226,325.693085 745.930664,336.477631 745.906372,347.262085 
	C745.853394,370.817017 745.769653,394.371887 745.366028,417.987732 
	C724.614441,428.705688 712.665039,456.545227 718.421082,478.907257 
	C725.728516,507.296539 752.251953,526.512512 781.716797,522.045349 
	C809.521484,517.829895 828.516541,495.089874 829.857971,468.938049 
	C830.830933,449.971313 823.204590,434.232635 808.532043,422.280060 
	C804.547913,419.034546 799.336853,417.295135 794.544067,414.427734 
	C794.362549,399.204987 794.277832,384.418945 794.301208,369.633026 
	C794.330627,351.030090 794.448303,332.427277 794.527832,313.824432 
z"/>
<path fill="#141515" opacity="1.000000" stroke="none" 
	d="
M370.647766,414.023773 
	C370.719055,389.122742 370.798523,364.221771 370.856964,339.320709 
	C370.876068,331.184723 370.840576,323.048584 370.834412,314.209229 
	C370.787933,313.346100 370.737091,313.186310 370.765015,312.562225 
	C370.845642,286.629272 370.937866,261.160187 370.826508,235.692017 
	C370.688904,204.220718 377.925140,174.447113 391.331970,146.123016 
	C403.945618,119.474670 421.975677,96.871201 444.079681,77.058609 
	C457.522278,66.021530 471.345459,56.044674 486.804840,48.752048 
	C497.717499,43.604214 509.171173,39.608082 520.340576,34.994286 
	C522.013306,34.303329 523.451782,33.045120 524.998596,32.049332 
	C533.995972,30.607815 542.959656,28.896990 551.996094,27.768154 
	C614.097717,20.010361 670.028320,34.760750 718.261841,75.103920 
	C758.604065,108.846680 783.268127,152.039154 791.551147,204.105423 
	C793.478638,216.220734 793.976562,228.639420 794.192017,240.934982 
	C794.612305,264.925079 794.368591,288.926819 794.463867,313.374084 
	C794.448303,332.427277 794.330627,351.030090 794.301208,369.633026 
	C794.277832,384.418945 794.362549,399.204987 794.382812,414.884216 
	C794.327271,432.609100 794.405334,449.442139 794.209412,466.271973 
	C794.071045,478.161560 786.083496,487.848206 775.128296,489.956879 
	C759.827881,492.901947 746.213379,482.029602 745.974487,466.407471 
	C745.727478,450.249603 745.778015,434.087219 745.698486,417.926788 
	C745.769653,394.371887 745.853394,370.817017 745.906372,347.262085 
	C745.930664,336.477631 745.894226,325.693085 745.890137,314.205994 
	C745.894897,313.503387 745.751709,313.028778 745.824585,312.563416 
	C745.650391,283.642059 746.595825,255.114670 744.897949,226.745499 
	C741.750244,174.152695 717.250671,132.845413 674.355591,102.555344 
	C655.977844,89.578041 635.567932,80.973686 612.939941,77.067917 
	C611.727966,76.683548 610.863953,76.341171 609.934143,75.627197 
	C609.283997,74.707352 608.733948,73.726105 608.110229,73.676758 
	C600.539001,73.077736 592.958496,72.584221 585.373474,72.202309 
	C584.946838,72.180832 584.459229,73.371620 583.600037,73.998573 
	C582.133362,73.998711 581.066711,73.998436 579.909485,73.602318 
	C578.320190,72.804329 576.809814,72.023849 575.324707,72.069229 
	C570.370728,72.220596 565.342224,72.211021 560.495117,73.098160 
	C550.763794,74.879227 541.112061,77.121323 531.483215,79.407959 
	C529.924377,79.778145 527.033020,80.331062 528.473877,83.430824 
	C490.086365,97.065620 461.101562,121.548523 440.839417,156.299591 
	C425.948822,181.838089 418.874481,209.507523 419.184479,239.118591 
	C419.445740,264.070862 419.382294,289.026520 419.462585,313.980682 
	C419.380432,329.570465 419.250732,345.160187 419.228424,360.750061 
	C419.201599,379.498932 419.266052,398.247955 419.279663,417.911865 
	C419.235077,434.821930 419.341309,450.819000 419.121399,466.811554 
	C418.963806,478.273376 410.802063,487.910461 400.036682,489.960846 
	C384.372498,492.944183 371.071045,482.076355 370.906158,465.991028 
	C370.728607,448.669556 370.726471,431.346283 370.647766,414.023773 
z"/>
<path fill="#F58014" opacity="1.000000" stroke="none" 
	d="
M161.957077,1016.061218 
	C164.455551,1027.860962 171.885956,1036.362915 180.731461,1043.842285 
	C187.941910,1049.938965 196.371567,1053.586670 205.822830,1055.807007 
	C174.760254,1056.070679 143.426025,1056.772217 112.145584,1055.779175 
	C89.153519,1055.049194 66.477959,1031.993286 62.991913,1008.096680 
	C62.369926,1003.833069 62.036339,999.486511 62.039017,995.178528 
	C62.145969,823.093079 62.296734,651.007568 62.469990,478.922119 
	C62.505043,444.106171 63.187454,409.280945 62.575211,374.477509 
	C62.094860,347.171417 80.738052,319.745850 113.144859,314.383606 
	C115.756691,313.951447 118.451469,313.881287 121.107887,313.879181 
	C150.093674,313.856079 179.079514,313.880157 208.528961,313.965210 
	C199.782501,316.769806 190.593567,319.501251 182.800629,325.518402 
	C170.284698,335.182373 162.320709,347.601196 160.051407,363.339294 
	C159.297302,368.569122 159.052155,373.912109 159.045502,379.203918 
	C158.968414,440.529022 158.981720,501.854248 158.646576,563.504761 
	C139.981674,546.266663 115.745888,548.119080 101.595970,569.195129 
	C95.986740,577.549927 93.013916,587.674866 88.500488,597.039673 
	C86.155014,600.024048 83.549538,602.719360 82.244003,605.941345 
	C74.928955,623.994568 72.603363,643.143433 72.254074,662.326721 
	C71.980988,677.324463 72.829071,692.555664 75.280785,707.334534 
	C78.166870,724.731750 82.102280,742.169617 87.802689,758.830322 
	C94.768440,779.189087 104.216759,798.688354 112.211365,818.711121 
	C114.760849,825.096375 116.098152,831.965515 117.530334,838.701477 
	C108.120026,838.789673 99.169479,838.789673 89.696518,838.789673 
	C88.383690,845.709900 87.123405,852.353149 85.526520,859.038452 
	C82.155106,863.101562 77.555275,866.718506 76.392281,871.222839 
	C73.440475,882.655151 71.029518,894.417358 70.234169,906.171509 
	C69.037048,923.863098 69.714935,941.667297 73.050232,959.182800 
	C77.016716,980.012939 83.666306,999.493408 101.008675,1013.597412 
	C114.384369,1024.475464 129.221893,1027.733276 145.624649,1022.847900 
	C150.950241,1021.261658 155.873428,1018.324280 161.224823,1016.018066 
	C161.468979,1016.031250 161.957077,1016.061218 161.957077,1016.061218 
z"/>
<path fill="#111010" opacity="1.000000" stroke="none" 
	d="
M524.636963,31.978340 
	C523.451782,33.045120 522.013306,34.303329 520.340576,34.994286 
	C509.171173,39.608082 497.717499,43.604214 486.804840,48.752048 
	C471.345459,56.044674 457.522278,66.021530 443.699890,77.069077 
	C407.993561,84.285538 378.277710,100.963280 354.257629,127.255188 
	C327.495911,156.548019 312.750488,191.218491 311.632324,230.980057 
	C310.860718,258.419556 311.548126,285.900116 311.583496,313.362305 
	C295.694489,313.443848 279.805481,313.525391 263.456482,313.492615 
	C263.005463,287.222717 262.589203,261.058655 263.106415,234.913101 
	C264.439087,167.545853 292.100891,112.904007 344.300171,70.706451 
	C372.281586,48.086460 404.546631,34.347031 439.905609,28.384857 
	C462.845734,24.516735 486.021759,24.845512 509.066437,28.227938 
	C514.205383,28.982210 519.209290,30.656595 524.636963,31.978340 
z"/>
<path fill="#FFFFFE" opacity="1.000000" stroke="none" 
	d="
M550.140076,742.479553 
	C554.357605,740.695251 558.426880,738.216980 562.824890,737.277283 
	C570.927490,735.546143 578.068237,738.265015 584.414673,744.417236 
	C585.106018,744.980469 585.393860,745.164062 585.681763,745.347656 
	C585.516724,744.844360 585.351746,744.341064 585.186707,743.837769 
	C582.318848,724.910645 592.259644,715.167786 612.239136,709.727356 
	C618.917053,707.908875 625.014832,710.498413 630.353821,714.708618 
	C631.475647,715.593323 632.552551,716.534912 633.988098,717.732117 
	C628.814148,699.148743 644.356812,682.778870 668.377686,681.653564 
	C667.361389,679.722290 666.504456,677.990662 665.557312,676.309814 
	C652.487732,653.114014 639.753357,629.719604 626.201782,606.808533 
	C617.488586,592.077515 622.810059,576.942749 637.151428,569.011414 
	C654.524231,559.403625 668.054871,566.992249 675.300659,580.010925 
	C707.265625,637.443420 739.762207,694.579895 772.071594,751.820618 
	C773.112244,753.664124 774.210754,755.475098 776.061523,758.629272 
	C776.703613,746.863342 777.316589,736.525940 777.820740,726.183289 
	C778.574707,710.714355 779.223694,695.240356 779.972229,679.771179 
	C780.491760,669.033752 789.566284,658.595215 801.328247,657.377014 
	C809.596313,656.520691 818.348328,657.057129 826.469604,658.850098 
	C837.989990,661.393372 845.402771,671.899109 844.955017,683.637878 
	C843.971375,709.428406 842.575623,735.203125 841.351074,760.984436 
	C840.608459,776.620728 839.873413,792.257324 839.131409,807.893616 
	C838.152649,828.519104 837.182434,849.145020 836.169067,869.768799 
	C836.079834,871.585876 836.019043,873.506409 835.402710,875.179077 
	C830.846130,887.544678 833.947754,899.331543 837.421936,911.296265 
	C839.579529,918.726990 841.210449,926.442566 841.890015,934.135193 
	C842.640564,942.632324 838.445740,949.006409 830.847412,953.270874 
	C796.018372,972.818298 761.194885,992.377502 726.520630,1012.197083 
	C718.838013,1016.588440 711.507385,1016.266663 705.053589,1011.245789 
	C692.092651,1001.162415 678.967529,991.348083 665.731140,981.630737 
	C653.518005,972.664490 644.937866,959.623474 637.259827,946.511230 
	C613.046082,905.159607 589.097595,863.652588 565.116150,822.165344 
	C558.205017,810.209229 551.529297,798.117004 544.403198,785.538452 
	C542.195068,782.106323 540.329407,779.222839 538.441223,775.995361 
	C537.652832,774.081970 536.887024,772.512634 536.085632,770.483887 
	C536.146606,763.659485 535.640991,757.192383 539.528809,751.296143 
	C543.282593,748.278259 546.711304,745.378906 550.140076,742.479553 
z"/>
<path fill="#FFFEFE" opacity="1.000000" stroke="none" 
	d="
M419.884705,313.850891 
	C419.382294,289.026520 419.445740,264.070862 419.184479,239.118591 
	C418.874481,209.507523 425.948822,181.838089 440.839417,156.299591 
	C461.101562,121.548523 490.086365,97.065620 528.762207,83.694366 
	C529.966003,83.932526 530.483887,83.932533 531.287048,84.161118 
	C532.589783,84.896591 533.571472,85.498665 534.629822,85.896553 
	C566.356995,97.824287 590.937317,118.852119 609.969177,146.385849 
	C629.143616,174.125717 637.797791,205.364014 638.001343,238.960098 
	C638.151611,263.766876 638.017212,288.575348 638.009705,313.383057 
	C635.853210,313.474396 633.696838,313.644592 631.540283,313.645691 
	C561.129089,313.680847 490.717926,313.699768 419.884705,313.850891 
z"/>
<path fill="#D5C8FD" opacity="1.000000" stroke="none" 
	d="
M445.602386,448.967926 
	C445.689880,429.143433 445.778107,409.318909 445.863739,389.494415 
	C445.872284,387.519226 445.864899,385.543976 445.864899,383.217041 
	C534.140991,383.217041 622.043945,383.217041 710.322388,383.217041 
	C710.322388,440.276733 710.322388,497.338013 710.322388,554.772095 
	C622.369629,554.772095 534.481628,554.772095 445.828705,554.772095 
	C445.828705,530.859558 445.828705,506.935303 445.819519,482.085449 
	C445.741028,470.429230 445.671692,459.698578 445.602386,448.967926 
M537.730469,457.391235 
	C537.730469,459.321198 537.730469,461.251129 537.730469,463.375854 
	C542.507996,463.375854 546.589050,463.375854 551.247925,463.375854 
	C551.247925,458.530823 551.247925,453.960480 551.247925,449.218048 
	C561.914490,449.218048 572.001343,449.218048 582.259033,449.218048 
	C582.259033,463.135101 582.259033,476.828613 582.259033,491.032654 
	C575.589844,491.032654 569.338196,491.032654 563.101807,491.032654 
	C563.101807,495.269836 563.101807,498.980957 563.101807,502.706879 
	C581.556030,502.706879 599.621887,502.706879 617.755859,502.706879 
	C617.755859,498.681366 617.755859,494.954620 617.755859,490.600952 
	C611.062073,490.600952 604.679810,490.600952 598.476807,490.600952 
	C598.476807,476.396210 598.476807,462.828339 598.476807,449.256287 
	C608.943970,449.256287 619.037476,449.256287 629.745850,449.256287 
	C629.745850,454.058441 629.745850,458.619598 629.745850,463.396240 
	C634.450745,463.396240 638.536011,463.396240 642.922852,463.396240 
	C642.922852,454.574738 642.922852,446.021240 642.922852,437.223633 
	C607.863953,437.223633 573.013428,437.223633 537.730225,437.223633 
	C537.730225,443.829010 537.730225,450.121796 537.730469,457.391235 
M484.504089,449.037476 
	C487.777832,449.037476 491.051544,449.037476 494.470398,449.037476 
	C494.470398,463.221954 494.470398,476.780182 494.470398,490.861359 
	C487.942108,490.861359 481.701874,490.861359 475.270599,490.861359 
	C475.270599,495.116180 475.270599,498.844238 475.270599,502.641052 
	C493.576508,502.641052 511.608368,502.641052 529.544189,502.641052 
	C529.544189,498.547699 529.544189,494.820007 529.544189,490.560852 
	C522.918091,490.560852 516.676880,490.560852 510.550262,490.560852 
	C510.550262,476.452087 510.550262,462.888580 510.550262,448.822021 
	C517.165344,448.822021 523.406738,448.822021 529.541992,448.822021 
	C529.541992,444.578094 529.541992,440.852966 529.541992,437.203857 
	C511.234589,437.203857 493.320435,437.203857 475.310730,437.203857 
	C475.310730,441.232666 475.310730,444.959137 475.310730,449.037506 
	C478.253937,449.037506 480.889191,449.037506 484.504089,449.037476 
z"/>
<path fill="#057460" opacity="1.000000" stroke="none" 
	d="
M262.847260,577.995117 
	C262.847260,571.572693 262.847260,565.150269 262.847260,558.440674 
	C273.659912,558.440674 283.860779,558.440674 294.912415,558.440674 
	C294.912415,564.299072 294.912415,570.186218 294.906677,576.997803 
	C294.959045,587.614929 295.017151,597.307556 294.991455,607.462524 
	C294.895233,731.955994 294.882385,855.987244 294.878967,980.018433 
	C294.878937,981.012146 295.006958,982.005859 294.993744,983.309326 
	C294.874725,984.044495 294.837189,984.469849 294.345184,984.923889 
	C283.657623,984.952576 273.424500,984.952576 263.022278,984.952576 
	C263.022278,982.387939 263.022308,980.565063 263.022308,978.742126 
	C263.022278,935.638672 263.036682,892.535278 263.014374,849.431824 
	C263.006561,834.290588 262.908630,819.149353 262.926636,803.544128 
	C263.001373,795.854675 263.001373,788.629272 263.001373,781.440369 
	C251.672073,781.440369 241.117355,781.440369 230.280746,781.440369 
	C230.280746,788.828796 230.280746,795.923340 230.206085,803.479736 
	C230.116043,861.970886 230.099670,920.000183 230.093765,978.029541 
	C230.093658,979.022156 230.220169,980.014771 230.209198,981.399170 
	C230.065887,982.853088 230.000992,983.915222 229.471893,984.988464 
	C218.782608,984.935059 208.557541,984.870544 198.327255,984.404541 
	C198.240891,982.669006 198.159744,981.335083 198.175201,979.540283 
	C198.290634,847.379211 198.310013,715.678955 198.318130,583.978638 
	C198.318192,582.987122 198.164703,581.995544 198.082916,581.004028 
	C198.082916,573.557312 198.082916,566.110596 198.082916,558.410461 
	C209.004181,558.410461 219.108353,558.410461 230.131119,558.410461 
	C230.131119,564.916870 230.131119,571.490540 230.125137,578.988770 
	C230.119156,637.131714 230.119156,694.350159 230.119156,751.634399 
	C241.376984,751.634399 252.081970,751.634399 263.015656,751.634399 
	C263.015656,749.452454 263.015625,747.634766 263.015625,745.817139 
	C263.016022,699.862549 263.026245,653.907898 263.009094,607.953308 
	C263.005371,597.967224 262.903778,587.981201 262.847260,577.995117 
z"/>
<path fill="#047361" opacity="1.000000" stroke="none" 
	d="
M332.081482,586.029236 
	C334.814178,580.012817 336.998535,573.667297 340.377075,568.038513 
	C353.139862,546.775330 384.948059,546.630249 397.848083,567.761169 
	C401.016296,572.950867 403.010468,578.857239 405.764893,585.105957 
	C414.030579,612.343994 416.786530,639.771973 418.929871,667.258423 
	C420.298553,684.809998 420.954010,702.417175 421.845032,720.462158 
	C421.907379,728.618042 422.053955,736.311218 422.133667,744.375732 
	C422.123199,745.496155 422.179596,746.245300 422.161682,747.458191 
	C422.235474,794.186096 422.436188,840.457092 418.012848,886.580383 
	C415.330688,914.547974 412.405212,942.497925 401.554077,969.142700 
	C393.268951,988.313416 374.969940,993.579834 360.789429,990.150330 
	C349.466461,987.411865 342.178833,979.980591 337.020569,969.608643 
	C334.972687,963.618225 332.582489,958.098633 331.010834,952.355042 
	C322.801788,922.355347 319.528839,891.542786 318.389618,860.659241 
	C316.838226,818.603271 316.896667,776.487854 316.278046,734.397705 
	C316.231873,731.255737 316.292328,728.112122 316.457947,724.533875 
	C316.672791,720.066162 316.732910,716.033813 316.874603,711.590393 
	C316.927673,709.786133 316.899200,708.392944 316.952942,706.546997 
	C318.210999,688.325867 319.128204,670.535706 320.627625,652.794739 
	C322.534637,630.231567 326.035675,607.901917 332.081482,586.029236 
M354.057312,628.903809 
	C352.828674,665.013245 351.010071,701.114380 350.505463,737.233948 
	C349.686523,795.852234 349.841766,854.491760 354.232513,912.997620 
	C355.285828,927.032776 358.072510,940.960022 360.523682,954.855469 
	C361.306580,959.293823 363.689728,963.873352 369.084045,963.923462 
	C374.547058,963.974182 376.109100,959.114502 377.804565,954.926331 
	C378.239380,953.852295 378.612732,952.723328 378.800842,951.584290 
	C380.209381,943.055359 382.265717,934.562073 382.809479,925.974670 
	C384.723755,895.743652 387.165314,865.489929 387.467407,835.225464 
	C387.987579,783.108032 387.246399,730.973694 386.613190,678.851624 
	C386.411224,662.226624 384.873718,645.617981 384.070709,628.104248 
	C382.161835,615.125671 380.531525,602.096802 378.200714,589.194397 
	C377.323822,584.340088 375.156403,579.011414 368.888489,579.077393 
	C362.810303,579.141296 360.943420,584.547607 360.105408,589.130798 
	C357.749146,602.017029 356.139252,615.039856 354.057312,628.903809 
z"/>
<path fill="#047360" opacity="1.000000" stroke="none" 
	d="
M88.840759,596.993835 
	C93.013916,587.674866 95.986740,577.549927 101.595970,569.195129 
	C115.745888,548.119080 139.981674,546.266663 158.622025,563.981079 
	C166.872894,573.167725 171.587219,583.854004 174.939316,596.045410 
	C176.242294,603.315491 177.854492,609.793457 178.527420,616.367554 
	C181.230484,642.775452 180.895096,669.074890 174.809570,695.094238 
	C174.205734,697.676025 172.965240,698.551392 170.339645,698.479065 
	C166.550034,698.374695 162.748337,698.708984 158.497437,698.762390 
	C153.794693,698.668701 149.546295,698.668701 146.504547,698.668701 
	C146.970947,675.973877 147.422760,653.988525 147.944244,631.543579 
	C146.208084,617.439026 144.742645,603.736023 142.429657,590.177612 
	C141.498795,584.721008 138.395218,579.155457 131.889236,579.174377 
	C125.462097,579.192993 122.804810,584.699951 121.074440,590.085693 
	C116.907104,603.056702 115.791771,616.452942 115.914948,630.446411 
	C115.051079,652.573669 116.312340,674.023071 121.355026,695.264038 
	C129.437714,729.310120 144.816299,760.456970 158.912857,792.516724 
	C163.680115,807.257446 168.417114,821.626160 173.127716,836.390625 
	C180.169662,864.702209 181.727554,893.055603 178.788651,921.575867 
	C176.623032,942.591858 171.882538,962.959229 157.694214,980.072876 
	C147.626648,989.407898 136.245850,993.378479 123.061050,989.916870 
	C111.469353,986.873596 103.441422,978.987061 97.613029,968.873413 
	C87.167625,950.748108 84.359573,930.658203 84.154625,910.268494 
	C83.982918,893.185242 85.239151,876.087646 85.863121,858.996399 
	C87.123405,852.353149 88.383690,845.709900 89.696518,838.789673 
	C99.169479,838.789673 108.120026,838.789673 117.851479,838.961121 
	C118.707916,839.619141 118.903175,840.121460 118.841843,840.590088 
	C114.915352,870.595215 114.355179,900.710205 117.180359,930.788757 
	C118.067062,940.229126 120.640953,949.745300 123.984497,958.647705 
	C126.739388,965.982544 135.138702,966.209229 139.319626,959.483765 
	C141.894608,955.341614 143.898254,950.486572 144.765244,945.699341 
	C149.793732,917.932556 149.674316,889.999146 145.376755,862.195251 
	C141.077484,834.380249 131.286316,808.208252 119.447266,782.798096 
	C108.126823,758.500977 97.734108,733.883118 91.144699,707.797302 
	C81.855652,671.024170 81.414505,634.098633 88.840759,596.993835 
z"/>
<path fill="#037361" opacity="1.000000" stroke="none" 
	d="
M443.360779,576.965759 
	C443.360779,570.875854 443.360779,564.786011 443.360779,557.544556 
	C458.323029,558.204224 472.513184,557.688293 486.329895,559.716370 
	C505.302704,562.501160 515.811218,576.191040 522.994263,592.829651 
	C523.519226,594.045776 523.969543,595.294128 524.714600,597.154846 
	C527.359131,606.739014 530.707886,615.567261 531.922607,624.679993 
	C534.280640,642.368774 535.439758,660.217468 537.018677,678.463135 
	C537.139221,702.948975 536.273926,726.923523 531.901550,750.595642 
	C528.053589,771.427917 521.759888,791.236572 504.571259,805.883728 
	C495.630310,811.860901 485.927490,814.155457 475.483124,814.326660 
	C475.483124,821.506042 475.483124,828.268616 475.385986,835.487305 
	C475.266632,882.313293 475.242676,928.683167 475.233917,975.053040 
	C475.233734,976.041260 475.408813,977.029419 475.397949,978.442627 
	C475.197052,980.912109 475.100311,982.956482 474.626526,985.000732 
	C473.499756,985.055725 472.750031,985.110962 471.536194,985.097168 
	C463.047974,985.074219 455.023834,985.120178 446.625488,985.097778 
	C445.490448,985.022888 444.729675,985.016357 443.866058,984.613586 
	C443.628204,983.144958 443.493164,982.072693 443.498749,980.551147 
	C443.667114,979.270203 443.719116,978.438477 443.719147,977.606812 
	C443.723083,855.554626 443.724548,733.502502 443.708435,611.450317 
	C443.708221,609.966919 443.479889,608.483521 443.493103,606.551514 
	C443.539062,596.390564 443.449921,586.678162 443.360779,576.965759 
M475.292542,613.951721 
	C475.292542,670.849915 475.292542,727.748169 475.292542,784.850586 
	C482.817688,785.227661 487.896271,782.310730 491.173889,776.083252 
	C496.622192,765.731384 498.605957,754.435120 499.945282,743.028320 
	C503.625793,711.682922 503.548492,680.215515 501.640808,648.795410 
	C500.870819,636.113586 498.033417,623.557312 496.144958,610.165161 
	C495.136261,607.382874 494.127563,604.600525 493.042999,601.112061 
	C488.403839,590.846252 483.342621,587.219299 475.479218,588.643005 
	C475.479218,591.395569 475.479218,594.173828 475.248901,597.867188 
	C475.325714,602.924500 475.402557,607.981750 475.292542,613.951721 
z"/>
<path fill="#F2AB22" opacity="1.000000" stroke="none" 
	d="
M443.358124,981.000366 
	C443.493164,982.072693 443.628204,983.144958 443.515533,984.671143 
	C443.567505,987.809265 443.296021,990.727356 444.279968,993.131592 
	C446.694550,999.031555 450.595642,1003.399353 457.630341,1004.040283 
	C470.132874,1005.179443 474.411011,995.801453 476.666138,987.282776 
	C476.817993,986.709106 475.589874,985.770020 475.003540,985.000916 
	C475.100311,982.956482 475.197052,980.912109 475.779449,978.407532 
	C476.843414,976.430725 477.910034,974.918457 477.923889,973.396606 
	C478.052490,959.251709 477.882721,945.103943 478.026428,930.959351 
	C478.262726,907.702515 478.392059,884.438599 479.139832,861.196045 
	C479.433685,852.061157 484.216461,844.640503 491.346344,838.797363 
	C499.000702,832.524170 507.154114,826.701538 513.982788,819.615479 
	C524.901855,808.285156 529.309387,793.511780 533.093323,778.613770 
	C533.764465,775.971069 535.095093,773.495850 536.121216,770.943237 
	C536.887024,772.512634 537.652832,774.081970 538.214233,776.383423 
	C536.040466,783.444946 534.157349,789.802734 532.084839,796.098267 
	C526.992310,811.567932 517.725647,824.009521 504.778137,833.854858 
	C499.391266,837.951111 493.648651,841.877258 489.256714,846.916748 
	C482.039185,855.198486 482.070709,865.892151 482.039154,876.202087 
	C481.935150,910.193054 482.299896,944.189209 481.758453,978.171875 
	C481.643951,985.359253 479.228973,992.815857 476.462524,999.570251 
	C473.623260,1006.502563 467.208374,1009.898315 459.626129,1009.939453 
	C451.826691,1009.981750 445.309723,1006.494568 442.422180,999.352966 
	C439.686829,992.587830 437.575745,985.155762 437.236267,977.920898 
	C436.479584,961.793945 437.299072,945.598755 436.854004,929.448547 
	C436.673859,922.911255 434.995789,916.393250 433.683167,909.930664 
	C433.460114,908.832581 431.733002,907.857727 430.492523,907.253113 
	C430.089996,907.056946 428.571106,908.072937 428.332092,908.790588 
	C426.467865,914.388855 424.317719,919.953247 423.146973,925.709351 
	C419.855103,941.893677 417.850494,958.388733 413.700470,974.335022 
	C410.004791,988.535583 403.682068,1001.984131 390.770538,1010.642456 
	C375.634369,1020.792542 359.491333,1020.025879 345.623932,1009.014221 
	C335.691010,1001.126770 329.137939,990.550720 326.120728,978.396729 
	C320.318115,955.022461 315.350952,931.441162 309.939056,907.968445 
	C309.623901,906.601501 308.433533,905.436462 307.650513,904.177429 
	C306.796265,905.261292 305.353302,906.260010 305.182220,907.442627 
	C303.975769,915.781189 302.488525,924.133606 302.117615,932.526978 
	C301.391296,948.962402 301.739075,965.450928 300.789398,981.868042 
	C300.437469,987.952637 298.940216,994.672913 295.792114,999.757812 
	C287.486755,1013.173096 272.523804,1013.527466 262.111237,1001.054382 
	C254.468613,991.899597 254.235062,980.344482 254.145065,969.335022 
	C253.790955,926.015686 254.012833,882.691833 253.982727,839.369629 
	C253.979218,834.316528 253.324570,829.494324 249.280807,825.690247 
	C246.958664,823.505737 244.648575,823.619629 243.591461,826.111755 
	C241.635391,830.723267 239.231857,835.667236 239.195541,840.489197 
	C238.863068,884.641968 239.175812,928.799744 238.822433,972.952209 
	C238.765274,980.095520 237.188080,987.509399 234.828949,994.281067 
	C231.757812,1003.096680 225.140839,1009.101318 215.379379,1009.892517 
	C206.624039,1010.602173 200.166763,1005.842468 196.512772,998.445557 
	C194.013855,993.386963 193.823029,987.238403 191.861481,981.845947 
	C190.595337,978.365173 188.685715,973.865723 185.812195,972.542786 
	C182.304504,970.927795 179.523041,974.788757 177.846252,978.287354 
	C175.543167,983.092773 173.620712,988.201904 170.569275,992.494202 
	C167.309875,997.079041 162.926910,1000.865234 159.016846,1004.572083 
	C158.991074,1002.430847 158.982864,1000.717651 159.324265,998.968811 
	C160.768906,997.983276 162.035477,997.171814 162.931808,996.061462 
	C169.953384,987.363037 173.457855,977.013062 177.023346,966.612488 
	C179.453949,959.522217 182.815430,952.751099 185.479523,946.497253 
	C191.092026,946.407593 193.102570,948.242126 193.435547,952.597839 
	C194.013153,960.153381 195.029465,967.680908 196.067917,975.191650 
	C196.297958,976.855713 197.385742,978.401062 198.078583,980.001099 
	C198.159744,981.335083 198.240891,982.669006 198.007980,984.629028 
	C197.597534,985.390381 197.427338,985.519409 197.415268,985.661926 
	C196.724716,993.801086 204.619690,1003.619263 212.147507,1003.997925 
	C222.499985,1004.518677 231.878601,996.626770 231.844086,987.266846 
	C231.841263,986.501343 230.601273,985.740417 229.936127,984.977356 
	C230.000992,983.915222 230.065887,982.853088 230.605911,981.374390 
	C231.720688,979.156067 232.914429,977.355591 232.918808,975.552246 
	C233.023132,932.390076 232.855240,889.226685 233.139740,846.066162 
	C233.188263,838.706665 234.608032,831.251282 236.277664,824.044861 
	C237.369049,819.334229 241.143433,815.703857 246.157303,815.323364 
	C250.909286,814.962769 254.658218,818.406311 255.999039,822.502014 
	C258.028137,828.700134 259.784576,835.324402 259.830750,841.780640 
	C260.151489,886.607239 259.901215,931.437683 260.130219,976.265442 
	C260.157593,981.619751 261.174561,987.283691 263.158447,992.232605 
	C265.559052,998.221191 269.316772,1003.827209 277.078705,1003.991699 
	C286.593781,1004.193481 293.646576,998.731079 295.630005,989.416077 
	C295.924957,988.030884 295.104248,986.408081 294.799652,984.895203 
	C294.837189,984.469849 294.874725,984.044495 295.377411,983.215698 
	C296.561035,978.679199 297.822601,974.557983 297.913116,970.411194 
	C298.725800,933.178406 299.301514,895.940552 300.020233,858.705566 
	C300.218842,848.415771 300.983856,838.129089 300.930695,827.843811 
	C300.804291,803.393250 300.504211,778.940857 299.966766,754.495972 
	C299.554626,735.748596 298.323975,717.016052 298.084259,698.268860 
	C297.749847,672.114624 298.130829,645.951660 297.868866,619.795776 
	C297.826080,615.521667 296.050171,611.264954 295.075256,607.000183 
	C295.017151,597.307556 294.959045,587.614929 294.986969,577.460205 
	C303.194946,581.196655 305.595764,588.974487 306.870605,597.027954 
	C307.846954,603.195496 307.460999,609.567932 308.147156,615.797913 
	C308.380768,617.918884 310.035645,619.883362 311.041138,621.919312 
	C312.771118,620.154663 315.180237,618.688660 316.110840,616.572510 
	C319.704773,608.400085 322.648682,599.941833 326.241852,591.769104 
	C327.217987,589.548889 329.622559,587.956665 331.726501,586.052734 
	C326.035675,607.901917 322.534637,630.231567 320.627625,652.794739 
	C319.128204,670.535706 318.210999,688.325867 316.607666,706.621765 
	C314.322815,709.027161 314.121674,710.695740 316.793060,712.001526 
	C316.732910,716.033813 316.672791,720.066162 316.117645,724.561157 
	C314.417053,726.575073 312.271576,728.058716 312.154602,729.688110 
	C311.219635,742.710022 309.902649,755.775513 310.175415,768.796814 
	C310.609070,789.501709 308.263367,810.227051 311.764771,830.953979 
	C313.761963,842.776550 311.134277,854.974609 313.722687,867.097534 
	C316.017883,877.846985 315.675781,889.132385 317.030975,900.115540 
	C319.478058,919.947815 321.674805,939.847168 325.198578,959.499390 
	C328.236145,976.440125 333.662537,992.743591 347.274200,1004.767334 
	C361.810394,1017.607666 381.847717,1015.210876 394.627441,1001.633545 
	C404.425568,991.223877 408.964630,978.218262 412.160309,964.723083 
	C417.813965,940.847961 420.605072,916.551636 422.000214,892.082397 
	C422.377594,885.463440 422.537750,878.823792 423.169769,872.229370 
	C424.296875,860.469604 426.595886,848.754211 426.822784,836.989685 
	C427.368774,808.677551 426.959106,780.347534 427.051117,752.025146 
	C427.062653,748.476746 426.053650,746.559753 422.235962,746.994385 
	C422.179596,746.245300 422.123199,745.496155 422.536194,744.353760 
	C423.650146,743.362915 424.843781,742.774719 424.854279,742.166199 
	C424.958557,736.114075 425.041382,730.048645 424.700531,724.011292 
	C424.622314,722.626282 422.896667,721.334290 421.929260,719.999451 
	C420.954010,702.417175 420.298553,684.809998 418.929871,667.258423 
	C416.786530,639.771973 414.030579,612.343994 405.988068,585.388916 
	C408.155792,587.325317 411.103363,589.299377 412.334900,592.043579 
	C415.647980,599.425964 418.097870,607.190491 421.165894,614.690735 
	C422.338684,617.557739 424.260223,620.118408 425.840515,622.818726 
	C427.219086,619.811646 429.285034,616.924255 429.833771,613.772705 
	C430.991577,607.123474 430.723297,600.191284 432.222839,593.646118 
	C433.717133,587.123779 436.084106,580.563782 443.038452,576.987183 
	C443.449921,586.678162 443.539062,596.390564 443.179138,606.685913 
	C442.153442,609.103149 441.108154,610.927368 441.068787,612.773071 
	C440.084106,658.958801 441.426788,705.134338 439.490234,751.364990 
	C437.803528,791.631165 440.545593,832.071899 440.934113,872.439270 
	C441.256104,905.895386 440.945160,939.357178 441.102051,972.815613 
	C441.114868,975.547363 442.572083,978.272278 443.358124,981.000366 
z"/>
<path fill="#121010" opacity="1.000000" stroke="none" 
	d="
M638.469238,313.491394 
	C638.017212,288.575348 638.151611,263.766876 638.001343,238.960098 
	C637.797791,205.364014 629.143616,174.125717 609.969177,146.385849 
	C590.937317,118.852119 566.356995,97.824287 534.629822,85.896553 
	C533.571472,85.498665 532.589783,84.896591 531.349365,83.808624 
	C532.800598,82.299774 534.371887,81.002937 536.165405,80.502625 
	C550.496765,76.504814 565.064697,73.981216 580.000000,73.998169 
	C581.066711,73.998436 582.133362,73.998711 584.066772,73.999146 
	C593.289001,74.665794 601.644531,75.332291 610.000000,75.998779 
	C610.863953,76.341171 611.727966,76.683548 613.065002,77.357544 
	C658.479004,117.545456 683.002319,167.492645 685.873474,227.439941 
	C687.242676,256.027344 686.485413,284.716614 686.691345,313.359741 
	C670.770508,313.439728 654.849609,313.519745 638.469238,313.491394 
z"/>
<path fill="#FEFEFD" opacity="1.000000" stroke="none" 
	d="
M312.069336,313.477203 
	C311.548126,285.900116 310.860718,258.419556 311.632324,230.980057 
	C312.750488,191.218491 327.495911,156.548019 354.257629,127.255188 
	C378.277710,100.963280 407.993561,84.285538 443.345032,77.135742 
	C421.975677,96.871201 403.945618,119.474670 391.331970,146.123016 
	C377.925140,174.447113 370.688904,204.220718 370.826508,235.692017 
	C370.937866,261.160187 370.845642,286.629272 370.525360,312.609497 
	C369.910217,313.297974 369.715668,313.552948 369.623322,313.885956 
	C350.600616,313.787994 331.577911,313.690063 312.069336,313.477203 
z"/>
<path fill="#FEFEFD" opacity="1.000000" stroke="none" 
	d="
M687.168823,313.475464 
	C686.485413,284.716614 687.242676,256.027344 685.873474,227.439941 
	C683.002319,167.492645 658.479004,117.545456 613.412964,77.399521 
	C635.567932,80.973686 655.977844,89.578041 674.355591,102.555344 
	C717.250671,132.845413 741.750244,174.152695 744.897949,226.745499 
	C746.595825,255.114670 745.650391,283.642059 745.579834,312.613861 
	C745.053467,313.381622 744.844788,313.633575 744.636047,313.885559 
	C725.639465,313.787445 706.642944,313.689301 687.168823,313.475464 
z"/>
<path fill="#F3AB22" opacity="1.000000" stroke="none" 
	d="
M159.034363,1005.000000 
	C162.926910,1000.865234 167.309875,997.079041 170.569275,992.494202 
	C173.620712,988.201904 175.543167,983.092773 177.846252,978.287354 
	C179.523041,974.788757 182.304504,970.927795 185.812195,972.542786 
	C188.685715,973.865723 190.595337,978.365173 191.861481,981.845947 
	C193.823029,987.238403 194.013855,993.386963 196.512772,998.445557 
	C200.166763,1005.842468 206.624039,1010.602173 215.379379,1009.892517 
	C225.140839,1009.101318 231.757812,1003.096680 234.828949,994.281067 
	C237.188080,987.509399 238.765274,980.095520 238.822433,972.952209 
	C239.175812,928.799744 238.863068,884.641968 239.195541,840.489197 
	C239.231857,835.667236 241.635391,830.723267 243.591461,826.111755 
	C244.648575,823.619629 246.958664,823.505737 249.280807,825.690247 
	C253.324570,829.494324 253.979218,834.316528 253.982727,839.369629 
	C254.012833,882.691833 253.790955,926.015686 254.145065,969.335022 
	C254.235062,980.344482 254.468613,991.899597 262.111237,1001.054382 
	C272.523804,1013.527466 287.486755,1013.173096 295.792114,999.757812 
	C298.940216,994.672913 300.437469,987.952637 300.789398,981.868042 
	C301.739075,965.450928 301.391296,948.962402 302.117615,932.526978 
	C302.488525,924.133606 303.975769,915.781189 305.182220,907.442627 
	C305.353302,906.260010 306.796265,905.261292 307.650513,904.177429 
	C308.433533,905.436462 309.623901,906.601501 309.939056,907.968445 
	C315.350952,931.441162 320.318115,955.022461 326.120728,978.396729 
	C329.137939,990.550720 335.691010,1001.126770 345.623932,1009.014221 
	C359.491333,1020.025879 375.634369,1020.792542 390.770538,1010.642456 
	C403.682068,1001.984131 410.004791,988.535583 413.700470,974.335022 
	C417.850494,958.388733 419.855103,941.893677 423.146973,925.709351 
	C424.317719,919.953247 426.467865,914.388855 428.332092,908.790588 
	C428.571106,908.072937 430.089996,907.056946 430.492523,907.253113 
	C431.733002,907.857727 433.460114,908.832581 433.683167,909.930664 
	C434.995789,916.393250 436.673859,922.911255 436.854004,929.448547 
	C437.299072,945.598755 436.479584,961.793945 437.236267,977.920898 
	C437.575745,985.155762 439.686829,992.587830 442.422180,999.352966 
	C445.309723,1006.494568 451.826691,1009.981750 459.626129,1009.939453 
	C467.208374,1009.898315 473.623260,1006.502563 476.462524,999.570251 
	C479.228973,992.815857 481.643951,985.359253 481.758453,978.171875 
	C482.299896,944.189209 481.935150,910.193054 482.039154,876.202087 
	C482.070709,865.892151 482.039185,855.198486 489.256714,846.916748 
	C493.648651,841.877258 499.391266,837.951111 504.778137,833.854858 
	C517.725647,824.009521 526.992310,811.567932 532.084839,796.098267 
	C534.157349,789.802734 536.040466,783.444946 538.236755,776.727417 
	C540.329407,779.222839 542.195068,782.106323 544.128418,785.321411 
	C541.386658,792.930969 538.778076,800.294250 535.726196,807.468933 
	C529.370422,822.410583 519.030212,833.964417 505.450714,842.842773 
	C498.124176,847.632812 491.850861,853.517761 490.556702,862.915283 
	C490.286469,864.877625 490.025055,866.862671 490.023224,868.837402 
	C489.991058,903.335876 490.264740,937.837830 489.819855,972.330566 
	C489.703918,981.320190 488.292267,990.536255 485.879486,999.203979 
	C480.299683,1019.248840 456.725311,1025.403320 440.958313,1012.120422 
	C433.566162,1005.892822 431.027313,996.627075 430.020294,987.154663 
	C429.565643,982.877991 429.596069,978.531006 428.858551,974.311768 
	C428.536774,972.470764 426.838898,970.870422 425.765869,969.160767 
	C424.517822,970.688477 422.627808,972.030151 422.122589,973.773254 
	C417.810089,988.650818 411.979523,1002.593323 400.191406,1013.337646 
	C384.019287,1028.077759 360.218384,1029.551025 342.056641,1016.549561 
	C328.136108,1006.584290 321.927094,991.790527 317.104126,976.224121 
	C316.034607,972.772217 314.683868,970.131958 309.841522,969.091919 
	C309.546783,972.125793 309.162323,974.934082 309.019958,977.754700 
	C308.507568,987.905518 307.642212,997.846680 301.848175,1006.804504 
	C292.993988,1020.493469 274.073730,1022.989380 260.134705,1012.584900 
	C257.748444,1010.803711 255.529266,1008.788574 253.310471,1006.795166 
	C248.225418,1002.226562 244.911057,1002.623718 239.414139,1006.898132 
	C234.249466,1010.914246 228.779984,1015.038147 222.767349,1017.363525 
	C208.741409,1022.788208 193.144012,1014.892517 188.055511,1000.721252 
	C187.718597,999.782959 187.646713,998.639954 187.051132,997.926331 
	C185.675232,996.277527 184.244339,993.972534 182.470734,993.579224 
	C181.042648,993.262390 178.646683,994.994263 177.429001,996.445496 
	C172.220703,1002.652893 167.290039,1009.093201 162.107590,1015.754883 
	C161.957077,1016.061218 161.468979,1016.031250 161.186203,1015.624939 
	C160.280396,1011.812439 159.657364,1008.406189 159.034363,1005.000000 
z"/>
<path fill="#EFA923" opacity="1.000000" stroke="none" 
	d="
M198.175201,979.540283 
	C197.385742,978.401062 196.297958,976.855713 196.067917,975.191650 
	C195.029465,967.680908 194.013153,960.153381 193.435547,952.597839 
	C193.102570,948.242126 191.092026,946.407593 185.479523,946.497253 
	C182.815430,952.751099 179.453949,959.522217 177.023346,966.612488 
	C173.457855,977.013062 169.953384,987.363037 162.931808,996.061462 
	C162.035477,997.171814 160.768906,997.983276 159.039185,998.666809 
	C158.270523,992.243591 158.136551,986.086853 158.002563,979.930054 
	C171.882538,962.959229 176.623032,942.591858 178.788651,921.575867 
	C181.727554,893.055603 180.169662,864.702209 173.475037,836.440430 
	C174.710022,837.035889 175.859024,837.843140 176.373428,838.946228 
	C177.490906,841.342590 177.890015,844.158386 179.339371,846.287842 
	C180.430237,847.890564 182.698013,848.692322 184.441925,849.850586 
	C185.380844,848.418030 186.735855,847.100647 187.171005,845.528687 
	C188.046143,842.367126 188.913742,839.068420 188.924744,835.823486 
	C189.045517,800.190552 189.001312,764.557190 188.997147,728.923889 
	C188.997009,727.759399 189.102890,726.565857 188.893600,725.435120 
	C187.604752,718.471558 181.220230,714.880249 176.795319,718.935730 
	C171.617828,723.680847 165.785278,725.475037 158.996002,724.531372 
	C158.975647,715.660583 158.963715,707.258301 158.951782,698.856079 
	C162.748337,698.708984 166.550034,698.374695 170.339645,698.479065 
	C172.965240,698.551392 174.205734,697.676025 174.809570,695.094238 
	C180.895096,669.074890 181.230484,642.775452 178.527420,616.367554 
	C177.854492,609.793457 176.242294,603.315491 175.087585,596.394043 
	C175.435486,596.056091 175.829102,596.018860 176.069443,596.193054 
	C184.377701,602.215149 186.715118,601.211914 190.530029,591.329590 
	C191.975067,587.586243 195.042282,584.469238 197.726501,581.035400 
	C198.164703,581.995544 198.318192,582.987122 198.318130,583.978638 
	C198.310013,715.678955 198.290634,847.379211 198.175201,979.540283 
z"/>
<path fill="#F28013" opacity="1.000000" stroke="none" 
	d="
M745.365967,417.987732 
	C745.778015,434.087219 745.727478,450.249603 745.974487,466.407471 
	C746.213379,482.029602 759.827881,492.901947 775.128296,489.956879 
	C786.083496,487.848206 794.071045,478.161560 794.209412,466.271973 
	C794.405334,449.442139 794.327271,432.609100 794.527588,415.320923 
	C799.336853,417.295135 804.547913,419.034546 808.532043,422.280060 
	C823.204590,434.232635 830.830933,449.971313 829.857971,468.938049 
	C828.516541,495.089874 809.521484,517.829895 781.716797,522.045349 
	C752.251953,526.512512 725.728516,507.296539 718.421082,478.907257 
	C712.665039,456.545227 724.614441,428.705688 745.365967,417.987732 
z"/>
<path fill="#F28013" opacity="1.000000" stroke="none" 
	d="
M445.390015,448.710754 
	C445.671692,459.698578 445.741028,470.429230 445.729492,481.632141 
	C437.913422,504.610504 422.735626,518.203308 398.899323,522.114990 
	C368.823181,527.050842 338.670227,502.969391 335.862122,473.082855 
	C333.569824,448.686005 343.385925,430.667419 363.307251,417.481598 
	C365.354156,416.126770 367.803101,415.379333 370.356628,414.186890 
	C370.726471,431.346283 370.728607,448.669556 370.906158,465.991028 
	C371.071045,482.076355 384.372498,492.944183 400.036682,489.960846 
	C410.802063,487.910461 418.963806,478.273376 419.121399,466.811554 
	C419.341309,450.819000 419.235077,434.821930 419.385010,418.361938 
	C432.146271,424.649170 440.254547,435.213135 445.390015,448.710754 
z"/>
<path fill="#F2AB22" opacity="1.000000" stroke="none" 
	d="
M262.505585,578.038086 
	C262.903778,587.981201 263.005371,597.967224 263.009094,607.953308 
	C263.026245,653.907898 263.016022,699.862549 263.015625,745.817139 
	C263.015625,747.634766 263.015656,749.452454 263.015656,751.634399 
	C252.081970,751.634399 241.376984,751.634399 230.119156,751.634399 
	C230.119156,694.350159 230.119156,637.131714 230.202911,579.450439 
	C234.179169,581.813171 238.339294,584.340393 241.900940,587.534851 
	C247.133057,592.227661 247.755280,592.117126 252.272400,586.747192 
	C255.061676,583.431274 258.833282,580.941589 262.505585,578.038086 
z"/>
<path fill="#F2AB23" opacity="1.000000" stroke="none" 
	d="
M537.095581,677.999878 
	C535.439758,660.217468 534.280640,642.368774 531.922607,624.679993 
	C530.707886,615.567261 527.359131,606.739014 524.964417,597.399292 
	C531.214233,598.828186 532.388550,604.980225 534.501038,609.594849 
	C543.182007,628.557922 547.919556,648.673523 548.948792,669.508850 
	C549.929993,689.373047 550.412842,709.263611 550.937927,729.147217 
	C551.046326,733.252319 550.374146,737.377991 550.100891,741.986877 
	C546.711304,745.378906 543.282593,748.278259 539.439209,750.870605 
	C538.724487,748.793335 538.086609,747.004761 538.180908,745.255737 
	C538.686584,735.877747 539.803833,726.513672 539.892212,717.137085 
	C540.004333,705.239441 539.382446,693.332520 538.919800,681.435669 
	C538.874390,680.268555 537.729919,679.144104 537.095581,677.999878 
z"/>
<path fill="#F28013" opacity="1.000000" stroke="none" 
	d="
M369.888733,313.916138 
	C369.715668,313.552948 369.910217,313.297974 370.446625,313.073792 
	C370.737091,313.186310 370.787933,313.346100 370.762878,313.744873 
	C370.509338,313.971313 370.331726,313.958801 369.888733,313.916138 
z"/>
<path fill="#F28013" opacity="1.000000" stroke="none" 
	d="
M744.915283,313.912720 
	C744.844788,313.633575 745.053467,313.381622 745.506958,313.079224 
	C745.751709,313.028778 745.894897,313.503387 745.824585,313.740173 
	C745.567688,313.964630 745.381042,313.952240 744.915283,313.912720 
z"/>
<path fill="#141515" opacity="1.000000" stroke="none" 
	d="
M579.909485,73.602318 
	C565.064697,73.981216 550.496765,76.504814 536.165405,80.502625 
	C534.371887,81.002937 532.800598,82.299774 531.064087,83.580048 
	C530.483887,83.932533 529.966003,83.932526 529.159912,83.668968 
	C527.033020,80.331062 529.924377,79.778145 531.483215,79.407959 
	C541.112061,77.121323 550.763794,74.879227 560.495117,73.098160 
	C565.342224,72.211021 570.370728,72.220596 575.324707,72.069229 
	C576.809814,72.023849 578.320190,72.804329 579.909485,73.602318 
z"/>
<path fill="#141515" opacity="1.000000" stroke="none" 
	d="
M609.934143,75.627190 
	C601.644531,75.332291 593.289001,74.665794 584.466797,73.998734 
	C584.459229,73.371620 584.946838,72.180832 585.373474,72.202309 
	C592.958496,72.584221 600.539001,73.077736 608.110229,73.676758 
	C608.733948,73.726105 609.283997,74.707352 609.934143,75.627190 
z"/>
<path fill="#EC7C13" opacity="1.000000" stroke="none" 
	d="
M88.500496,597.039673 
	C81.414505,634.098633 81.855652,671.024170 91.144699,707.797302 
	C97.734108,733.883118 108.126823,758.500977 119.447266,782.798096 
	C131.286316,808.208252 141.077484,834.380249 145.376755,862.195251 
	C149.674316,889.999146 149.793732,917.932556 144.765244,945.699341 
	C143.898254,950.486572 141.894608,955.341614 139.319626,959.483765 
	C135.138702,966.209229 126.739388,965.982544 123.984497,958.647705 
	C120.640953,949.745300 118.067062,940.229126 117.180359,930.788757 
	C114.355179,900.710205 114.915352,870.595215 118.841843,840.590088 
	C118.903175,840.121460 118.707916,839.619141 118.311249,838.872925 
	C116.098152,831.965515 114.760849,825.096375 112.211365,818.711121 
	C104.216759,798.688354 94.768440,779.189087 87.802689,758.830322 
	C82.102280,742.169617 78.166870,724.731750 75.280785,707.334534 
	C72.829071,692.555664 71.980988,677.324463 72.254074,662.326721 
	C72.603363,643.143433 74.928955,623.994568 82.244003,605.941345 
	C83.549538,602.719360 86.155014,600.024048 88.500496,597.039673 
z"/>
<path fill="#EE7D13" opacity="1.000000" stroke="none" 
	d="
M157.694214,980.072876 
	C158.136551,986.086853 158.270523,992.243591 158.689575,998.702393 
	C158.982864,1000.717651 158.991074,1002.430847 159.016815,1004.572021 
	C159.657364,1008.406189 160.280396,1011.812439 160.942047,1015.611755 
	C155.873428,1018.324280 150.950241,1021.261658 145.624649,1022.847900 
	C129.221893,1027.733276 114.384369,1024.475464 101.008675,1013.597412 
	C83.666306,999.493408 77.016716,980.012939 73.050232,959.182800 
	C69.714935,941.667297 69.037048,923.863098 70.234169,906.171509 
	C71.029518,894.417358 73.440475,882.655151 76.392281,871.222839 
	C77.555275,866.718506 82.155106,863.101562 85.526520,859.038452 
	C85.239151,876.087646 83.982918,893.185242 84.154625,910.268494 
	C84.359573,930.658203 87.167625,950.748108 97.613029,968.873413 
	C103.441422,978.987061 111.469353,986.873596 123.061050,989.916870 
	C136.245850,993.378479 147.626648,989.407898 157.694214,980.072876 
z"/>
<path fill="#EFA923" opacity="1.000000" stroke="none" 
	d="
M537.018677,678.463135 
	C537.729919,679.144104 538.874390,680.268555 538.919800,681.435669 
	C539.382446,693.332520 540.004333,705.239441 539.892212,717.137085 
	C539.803833,726.513672 538.686584,735.877747 538.180908,745.255737 
	C538.086609,747.004761 538.724487,748.793335 539.114075,750.989136 
	C535.640991,757.192383 536.146606,763.659485 536.085693,770.483887 
	C535.095093,773.495850 533.764465,775.971069 533.093323,778.613770 
	C529.309387,793.511780 524.901855,808.285156 513.982788,819.615479 
	C507.154114,826.701538 499.000702,832.524170 491.346344,838.797363 
	C484.216461,844.640503 479.433685,852.061157 479.139832,861.196045 
	C478.392059,884.438599 478.262726,907.702515 478.026428,930.959351 
	C477.882721,945.103943 478.052490,959.251709 477.923889,973.396606 
	C477.910034,974.918457 476.843414,976.430725 475.883606,977.982544 
	C475.408813,977.029419 475.233734,976.041260 475.233917,975.053040 
	C475.242676,928.683167 475.266632,882.313293 475.694885,835.421021 
	C484.653015,827.178589 493.283569,819.542114 501.686584,811.662964 
	C503.235107,810.210938 503.862610,807.776611 504.915253,805.795715 
	C521.759888,791.236572 528.053589,771.427917 531.901550,750.595642 
	C536.273926,726.923523 537.139221,702.948975 537.018677,678.463135 
z"/>
<path fill="#F9AF23" opacity="1.000000" stroke="none" 
	d="
M585.046631,743.957703 
	C585.351746,744.341064 585.516724,744.844360 585.681763,745.347656 
	C585.393860,745.164062 585.106018,744.980469 584.719971,744.554443 
	C584.621887,744.312012 584.906616,744.077637 585.046631,743.957703 
z"/>
<path fill="#2241AF" opacity="1.000000" stroke="none" 
	d="
M537.730347,456.902893 
	C537.730225,450.121796 537.730225,443.829010 537.730225,437.223633 
	C573.013428,437.223633 607.863953,437.223633 642.922852,437.223633 
	C642.922852,446.021240 642.922852,454.574738 642.922852,463.396240 
	C638.536011,463.396240 634.450745,463.396240 629.745850,463.396240 
	C629.745850,458.619598 629.745850,454.058441 629.745850,449.256287 
	C619.037476,449.256287 608.943970,449.256287 598.476807,449.256287 
	C598.476807,462.828339 598.476807,476.396210 598.476807,490.600952 
	C604.679810,490.600952 611.062073,490.600952 617.755859,490.600952 
	C617.755859,494.954620 617.755859,498.681366 617.755859,502.706879 
	C599.621887,502.706879 581.556030,502.706879 563.101807,502.706879 
	C563.101807,498.980957 563.101807,495.269836 563.101807,491.032654 
	C569.338196,491.032654 575.589844,491.032654 582.259033,491.032654 
	C582.259033,476.828613 582.259033,463.135101 582.259033,449.218048 
	C572.001343,449.218048 561.914490,449.218048 551.247925,449.218048 
	C551.247925,453.960480 551.247925,458.530823 551.247925,463.375854 
	C546.589050,463.375854 542.507996,463.375854 537.730469,463.375854 
	C537.730469,461.251129 537.730469,459.321198 537.730347,456.902893 
z"/>
<path fill="#2140AF" opacity="1.000000" stroke="none" 
	d="
M484.014282,449.037476 
	C480.889191,449.037506 478.253937,449.037506 475.310730,449.037506 
	C475.310730,444.959137 475.310730,441.232666 475.310730,437.203857 
	C493.320435,437.203857 511.234589,437.203857 529.541992,437.203857 
	C529.541992,440.852966 529.541992,444.578094 529.541992,448.822021 
	C523.406738,448.822021 517.165344,448.822021 510.550262,448.822021 
	C510.550262,462.888580 510.550262,476.452087 510.550262,490.560852 
	C516.676880,490.560852 522.918091,490.560852 529.544189,490.560852 
	C529.544189,494.820007 529.544189,498.547699 529.544189,502.641052 
	C511.608368,502.641052 493.576508,502.641052 475.270599,502.641052 
	C475.270599,498.844238 475.270599,495.116180 475.270599,490.861359 
	C481.701874,490.861359 487.942108,490.861359 494.470398,490.861359 
	C494.470398,476.780182 494.470398,463.221954 494.470398,449.037476 
	C491.051544,449.037476 487.777832,449.037476 484.014282,449.037476 
z"/>
<path fill="#EFA923" opacity="1.000000" stroke="none" 
	d="
M294.345184,984.923889 
	C295.104248,986.408081 295.924957,988.030884 295.630005,989.416077 
	C293.646576,998.731079 286.593781,1004.193481 277.078705,1003.991699 
	C269.316772,1003.827209 265.559052,998.221191 263.158447,992.232605 
	C261.174561,987.283691 260.157593,981.619751 260.130219,976.265442 
	C259.901215,931.437683 260.151489,886.607239 259.830750,841.780640 
	C259.784576,835.324402 258.028137,828.700134 255.999039,822.502014 
	C254.658218,818.406311 250.909286,814.962769 246.157303,815.323364 
	C241.143433,815.703857 237.369049,819.334229 236.277664,824.044861 
	C234.608032,831.251282 233.188263,838.706665 233.139740,846.066162 
	C232.855240,889.226685 233.023132,932.390076 232.918808,975.552246 
	C232.914429,977.355591 231.720688,979.156067 230.684326,980.982666 
	C230.220169,980.014771 230.093658,979.022156 230.093765,978.029541 
	C230.099670,920.000183 230.116043,861.970886 230.564056,803.468872 
	C233.077484,802.067139 235.356949,801.426575 237.202454,800.155762 
	C243.172012,796.045105 249.126480,796.148682 255.242691,799.634216 
	C257.784393,801.082764 260.315796,802.549622 262.851868,804.008118 
	C262.908630,819.149353 263.006561,834.290588 263.014374,849.431824 
	C263.036682,892.535278 263.022278,935.638672 263.022308,978.742126 
	C263.022308,980.565063 263.022278,982.387939 263.022278,984.952576 
	C273.424500,984.952576 283.657623,984.952576 294.345184,984.923889 
z"/>
<path fill="#EFA923" opacity="1.000000" stroke="none" 
	d="
M294.991455,607.462524 
	C296.050171,611.264954 297.826080,615.521667 297.868866,619.795776 
	C298.130829,645.951660 297.749847,672.114624 298.084259,698.268860 
	C298.323975,717.016052 299.554626,735.748596 299.966766,754.495972 
	C300.504211,778.940857 300.804291,803.393250 300.930695,827.843811 
	C300.983856,838.129089 300.218842,848.415771 300.020233,858.705566 
	C299.301514,895.940552 298.725800,933.178406 297.913116,970.411194 
	C297.822601,974.557983 296.561035,978.679199 295.458893,982.905945 
	C295.006958,982.005859 294.878937,981.012146 294.878967,980.018433 
	C294.882385,855.987244 294.895233,731.955994 294.991455,607.462524 
z"/>
<path fill="#E4A423" opacity="1.000000" stroke="none" 
	d="
M262.926636,803.544128 
	C260.315796,802.549622 257.784393,801.082764 255.242691,799.634216 
	C249.126480,796.148682 243.172012,796.045105 237.202454,800.155762 
	C235.356949,801.426575 233.077484,802.067139 230.638733,803.007080 
	C230.280746,795.923340 230.280746,788.828796 230.280746,781.440369 
	C241.117355,781.440369 251.672073,781.440369 263.001373,781.440369 
	C263.001373,788.629272 263.001373,795.854675 262.926636,803.544128 
z"/>
<path fill="#EFA923" opacity="1.000000" stroke="none" 
	d="
M229.471909,984.988464 
	C230.601273,985.740417 231.841263,986.501343 231.844086,987.266846 
	C231.878601,996.626770 222.499985,1004.518677 212.147507,1003.997925 
	C204.619690,1003.619263 196.724716,993.801086 197.415268,985.661926 
	C197.427338,985.519409 197.597534,985.390381 198.013199,985.030518 
	C208.557541,984.870544 218.782608,984.935059 229.471909,984.988464 
z"/>
<path fill="#F1AA22" opacity="1.000000" stroke="none" 
	d="
M383.947327,629.001831 
	C384.873718,645.617981 386.411224,662.226624 386.613190,678.851624 
	C387.246399,730.973694 387.987579,783.108032 387.467407,835.225464 
	C387.165314,865.489929 384.723755,895.743652 382.809479,925.974670 
	C382.265717,934.562073 380.209381,943.055359 378.800842,951.584290 
	C378.612732,952.723328 378.239380,953.852295 377.804565,954.926331 
	C376.109100,959.114502 374.547058,963.974182 369.084045,963.923462 
	C363.689728,963.873352 361.306580,959.293823 360.523682,954.855469 
	C358.072510,940.960022 355.285828,927.032776 354.232513,912.997620 
	C349.841766,854.491760 349.686523,795.852234 350.505463,737.233948 
	C351.010071,701.114380 352.828674,665.013245 354.479736,628.406860 
	C356.020966,626.755554 357.410034,625.763367 358.215088,624.420898 
	C363.846161,615.030579 373.396149,614.820068 379.613495,623.955444 
	C380.853241,625.777039 382.492371,627.326721 383.947327,629.001831 
z"/>
<path fill="#EFA923" opacity="1.000000" stroke="none" 
	d="
M422.161713,747.458191 
	C426.053650,746.559753 427.062653,748.476746 427.051117,752.025146 
	C426.959106,780.347534 427.368774,808.677551 426.822784,836.989685 
	C426.595886,848.754211 424.296875,860.469604 423.169769,872.229370 
	C422.537750,878.823792 422.377594,885.463440 422.000214,892.082397 
	C420.605072,916.551636 417.813965,940.847961 412.160309,964.723083 
	C408.964630,978.218262 404.425568,991.223877 394.627441,1001.633545 
	C381.847717,1015.210876 361.810394,1017.607666 347.274200,1004.767334 
	C333.662537,992.743591 328.236145,976.440125 325.198578,959.499390 
	C321.674805,939.847168 319.478058,919.947815 317.030975,900.115540 
	C315.675781,889.132385 316.017883,877.846985 313.722687,867.097534 
	C311.134277,854.974609 313.761963,842.776550 311.764771,830.953979 
	C308.263367,810.227051 310.609070,789.501709 310.175415,768.796814 
	C309.902649,755.775513 311.219635,742.710022 312.154602,729.688110 
	C312.271576,728.058716 314.417053,726.575073 315.962921,724.996582 
	C316.292328,728.112122 316.231873,731.255737 316.278046,734.397705 
	C316.896667,776.487854 316.838226,818.603271 318.389618,860.659241 
	C319.528839,891.542786 322.801788,922.355347 331.010834,952.355042 
	C332.582489,958.098633 334.972687,963.618225 336.741852,969.831726 
	C337.870819,980.926086 342.821594,989.583740 349.808685,997.392517 
	C358.966461,1007.627075 373.591827,1008.564880 384.088318,1001.267700 
	C394.798126,993.822205 399.471375,982.600098 402.598724,970.529968 
	C402.712311,970.091614 402.090454,969.462646 401.811340,968.922546 
	C412.405212,942.497925 415.330688,914.547974 418.012848,886.580383 
	C422.436188,840.457092 422.235474,794.186096 422.161713,747.458191 
z"/>
<path fill="#E9A622" opacity="1.000000" stroke="none" 
	d="
M384.009033,628.553040 
	C382.492371,627.326721 380.853241,625.777039 379.613495,623.955444 
	C373.396149,614.820068 363.846161,615.030579 358.215088,624.420898 
	C357.410034,625.763367 356.020966,626.755554 354.568604,627.959351 
	C356.139252,615.039856 357.749146,602.017029 360.105408,589.130798 
	C360.943420,584.547607 362.810303,579.141296 368.888489,579.077393 
	C375.156403,579.011414 377.323822,584.340088 378.200714,589.194397 
	C380.531525,602.096802 382.161835,615.125671 384.009033,628.553040 
z"/>
<path fill="#EAA622" opacity="1.000000" stroke="none" 
	d="
M401.554047,969.142700 
	C402.090454,969.462646 402.712311,970.091614 402.598724,970.529968 
	C399.471375,982.600098 394.798126,993.822205 384.088318,1001.267700 
	C373.591827,1008.564880 358.966461,1007.627075 349.808685,997.392517 
	C342.821594,989.583740 337.870819,980.926086 336.777161,970.199219 
	C342.178833,979.980591 349.466461,987.411865 360.789429,990.150330 
	C374.969940,993.579834 393.268951,988.313416 401.554047,969.142700 
z"/>
<path fill="#EFA923" opacity="1.000000" stroke="none" 
	d="
M421.845032,720.462158 
	C422.896667,721.334290 424.622314,722.626282 424.700531,724.011292 
	C425.041382,730.048645 424.958557,736.114075 424.854279,742.166199 
	C424.843781,742.774719 423.650146,743.362915 422.603058,743.982422 
	C422.053955,736.311218 421.907379,728.618042 421.845032,720.462158 
z"/>
<path fill="#EFA923" opacity="1.000000" stroke="none" 
	d="
M316.874603,711.590393 
	C314.121674,710.695740 314.322815,709.027161 316.525452,707.074585 
	C316.899200,708.392944 316.927673,709.786133 316.874603,711.590393 
z"/>
<path fill="#EE7D13" opacity="1.000000" stroke="none" 
	d="
M158.497437,698.762390 
	C158.963715,707.258301 158.975647,715.660583 158.988342,725.000000 
	C158.953598,748.006348 158.918106,770.075500 158.882599,792.144653 
	C144.816299,760.456970 129.437714,729.310120 121.355026,695.264038 
	C116.312340,674.023071 115.051079,652.573669 116.270996,630.405396 
	C118.420647,627.414734 120.081276,624.884277 121.825233,622.412537 
	C126.429733,615.886536 133.286362,613.916626 139.256195,619.918823 
	C141.624741,622.300293 143.064087,625.594360 145.001205,628.421753 
	C145.863815,629.680786 146.911102,630.813293 147.874573,632.003235 
	C147.422760,653.988525 146.970947,675.973877 146.504547,698.668701 
	C149.546295,698.668701 153.794693,698.668701 158.497437,698.762390 
z"/>
<path fill="#F7AE23" opacity="1.000000" stroke="none" 
	d="
M158.912857,792.516724 
	C158.918106,770.075500 158.953598,748.006348 158.996765,725.468628 
	C165.785278,725.475037 171.617828,723.680847 176.795319,718.935730 
	C181.220230,714.880249 187.604752,718.471558 188.893600,725.435120 
	C189.102890,726.565857 188.997009,727.759399 188.997147,728.923889 
	C189.001312,764.557190 189.045517,800.190552 188.924744,835.823486 
	C188.913742,839.068420 188.046143,842.367126 187.171005,845.528687 
	C186.735855,847.100647 185.380844,848.418030 184.441925,849.850586 
	C182.698013,848.692322 180.430237,847.890564 179.339371,846.287842 
	C177.890015,844.158386 177.490906,841.342590 176.373428,838.946228 
	C175.859024,837.843140 174.710022,837.035889 173.501434,836.044678 
	C168.417114,821.626160 163.680115,807.257446 158.912857,792.516724 
z"/>
<path fill="#E67A13" opacity="1.000000" stroke="none" 
	d="
M147.944244,631.543579 
	C146.911102,630.813293 145.863815,629.680786 145.001205,628.421753 
	C143.064087,625.594360 141.624741,622.300293 139.256195,619.918823 
	C133.286362,613.916626 126.429733,615.886536 121.825233,622.412537 
	C120.081276,624.884277 118.420647,627.414734 116.365982,629.959412 
	C115.791771,616.452942 116.907104,603.056702 121.074440,590.085693 
	C122.804810,584.699951 125.462097,579.192993 131.889236,579.174377 
	C138.395218,579.155457 141.498795,584.721008 142.429657,590.177612 
	C144.742645,603.736023 146.208084,617.439026 147.944244,631.543579 
z"/>
<path fill="#EFA922" opacity="1.000000" stroke="none" 
	d="
M496.136902,610.943909 
	C498.033417,623.557312 500.870819,636.113586 501.640808,648.795410 
	C503.548492,680.215515 503.625793,711.682922 499.945282,743.028320 
	C498.605957,754.435120 496.622192,765.731384 491.173889,776.083252 
	C487.896271,782.310730 482.817688,785.227661 475.292542,784.850586 
	C475.292542,727.748169 475.292542,670.849915 475.715851,613.422974 
	C477.233002,612.511963 478.666107,612.442200 479.358795,611.690369 
	C481.697021,609.152527 485.481659,606.405640 485.534424,603.677124 
	C485.607574,599.895996 481.661560,597.497314 477.473053,597.015808 
	C476.814697,596.940063 476.144135,596.970703 475.479218,596.952148 
	C475.479218,594.173828 475.479218,591.395569 475.479218,588.643005 
	C483.342621,587.219299 488.403839,590.846252 492.880981,601.760742 
	C490.654694,605.445374 492.136047,609.144226 496.136902,610.943909 
z"/>
<path fill="#EFA923" opacity="1.000000" stroke="none" 
	d="
M443.498749,980.551147 
	C442.572083,978.272278 441.114868,975.547363 441.102051,972.815613 
	C440.945160,939.357178 441.256104,905.895386 440.934113,872.439270 
	C440.545593,832.071899 437.803528,791.631165 439.490234,751.364990 
	C441.426788,705.134338 440.084106,658.958801 441.068787,612.773071 
	C441.108154,610.927368 442.153442,609.103149 443.044037,607.134521 
	C443.479889,608.483521 443.708221,609.966919 443.708435,611.450317 
	C443.724548,733.502502 443.723083,855.554626 443.719147,977.606812 
	C443.719116,978.438477 443.667114,979.270203 443.498749,980.551147 
z"/>
<path fill="#E0A424" opacity="1.000000" stroke="none" 
	d="
M504.571259,805.883728 
	C503.862610,807.776611 503.235107,810.210938 501.686584,811.662964 
	C493.283569,819.542114 484.653015,827.178589 475.791992,834.964905 
	C475.483124,828.268616 475.483124,821.506042 475.483124,814.326660 
	C485.927490,814.155457 495.630310,811.860901 504.571259,805.883728 
z"/>
<path fill="#EEA721" opacity="1.000000" stroke="none" 
	d="
M446.999725,985.166138 
	C455.023834,985.120178 463.047974,985.074219 471.535370,985.479187 
	C470.627502,994.316101 465.821198,999.191956 459.117950,998.997192 
	C452.559448,998.806702 447.652405,993.206055 446.999725,985.166138 
z"/>
<path fill="#EFA923" opacity="1.000000" stroke="none" 
	d="
M446.625488,985.097778 
	C447.652405,993.206055 452.559448,998.806702 459.117950,998.997192 
	C465.821198,999.191956 470.627502,994.316101 471.999451,985.548218 
	C472.750031,985.110962 473.499756,985.055725 474.626526,985.000732 
	C475.589874,985.770020 476.817993,986.709106 476.666138,987.282776 
	C474.411011,995.801453 470.132874,1005.179443 457.630341,1004.040283 
	C450.595642,1003.399353 446.694550,999.031555 444.279968,993.131592 
	C443.296021,990.727356 443.567505,987.809265 443.618347,985.067444 
	C444.729675,985.016357 445.490448,985.022888 446.625488,985.097778 
z"/>
<path fill="#DCA325" opacity="1.000000" stroke="none" 
	d="
M475.364075,597.409668 
	C476.144135,596.970703 476.814697,596.940063 477.473053,597.015808 
	C481.661560,597.497314 485.607574,599.895996 485.534424,603.677124 
	C485.481659,606.405640 481.697021,609.152527 479.358795,611.690369 
	C478.666107,612.442200 477.233002,612.511963 475.809265,612.966675 
	C475.402557,607.981750 475.325714,602.924500 475.364075,597.409668 
z"/>
<path fill="#DCA325" opacity="1.000000" stroke="none" 
	d="
M496.140930,610.554565 
	C492.136047,609.144226 490.654694,605.445374 492.918884,602.113770 
	C494.127563,604.600525 495.136261,607.382874 496.140930,610.554565 
z"/>
</svg>